HIERARCHY
ROOT Hips
{
  OFFSET 13.6774 106.653 -34.4427
  CHANNELS 6 Xposition Yposition Zposition Zrotation Xrotation Yrotation
  JOINT ToSpine
  {
    OFFSET -2.69724 7.43032 -0.144315
    CHANNELS 3 Zrotation Xrotation Yrotation
    JOINT Spine
    {
      OFFSET -0.0310711 10.7595 1.96963
      CHANNELS 3 Zrotation Xrotation Yrotation
      JOINT Spine1
      {
        OFFSET 19.9056 3.91189 0.764692
        CHANNELS 3 Zrotation Xrotation Yrotation
        JOINT Neck
        {
          OFFSET 25.9749 7.03908 -0.130764
          CHANNELS 3 Zrotation Xrotation Yrotation
          JOINT Head
          {
            OFFSET 9.52751 0.295786 -0.907742
            CHANNELS 3 Zrotation Xrotation Yrotation
            End Site
            {
              OFFSET 16.4037 0.713936 2.7358
            }
          }
        }
        JOINT LeftShoulder
        {
          OFFSET 17.7449 4.33886 11.7777
          CHANNELS 3 Zrotation Xrotation Yrotation
          JOINT LeftArm
          {
            OFFSET 0.911315 1.27913 9.80584
            CHANNELS 3 Zrotation Xrotation Yrotation
            JOINT LeftForeArm
            {
              OFFSET 28.6126 1.18197 -3.53199
              CHANNELS 3 Zrotation Xrotation Yrotation
              JOINT LeftHand
              {
                OFFSET 27.5088 0.0218783 0.327423
                CHANNELS 3 Zrotation Xrotation Yrotation
                End Site
                {
                  OFFSET 18.6038 -0.000155887 0.382096
                }
              }
            }
          }
        }
        JOINT RightShoulder
        {
          OFFSET 17.1009 2.89543 -12.2328
          CHANNELS 3 Zrotation Xrotation Yrotation
          JOINT RightArm
          {
            OFFSET 1.4228 0.178766 -10.211
            CHANNELS 3 Zrotation Xrotation Yrotation
            JOINT RightForeArm
            {
              OFFSET 28.733 1.87905 2.64907
              CHANNELS 3 Zrotation Xrotation Yrotation
              JOINT RightHand
              {
                OFFSET 27.4588 0.290562 -0.101845
                CHANNELS 3 Zrotation Xrotation Yrotation
                End Site
                {
                  OFFSET 17.8396 -0.255518 -0.000602873
                }
              }
            }
          }
        }
      }
    }
  }
  JOINT LeftUpLeg
  {
    OFFSET -5.61296 -2.22332 -10.2353
    CHANNELS 3 Zrotation Xrotation Yrotation
    JOINT LeftLeg
    {
      OFFSET 2.56703 -44.7417 -7.93097
      CHANNELS 3 Zrotation Xrotation Yrotation
      JOINT LeftFoot
      {
        OFFSET 3.16933 -46.5642 -3.96578
        CHANNELS 3 Zrotation Xrotation Yrotation
        JOINT LeftToeBase
        {
          OFFSET 0.346054 -6.02161 12.8035
          CHANNELS 3 Zrotation Xrotation Yrotation
          End Site
          {
            OFFSET 0.134235 -1.35082 5.13018
          }
        }
      }
    }
  }
  JOINT RightUpLeg
  {
    OFFSET -5.7928 -1.72406 10.6446
    CHANNELS 3 Zrotation Xrotation Yrotation
    JOINT RightLeg
    {
      OFFSET -2.57161 -44.7178 -7.85259
      CHANNELS 3 Zrotation Xrotation Yrotation
      JOINT RightFoot
      {
        OFFSET -3.10148 -46.5936 -4.03391
        CHANNELS 3 Zrotation Xrotation Yrotation
        JOINT RightToeBase
        {
          OFFSET -0.0828122 -6.13587 12.8035
          CHANNELS 3 Zrotation Xrotation Yrotation
          End Site
          {
            OFFSET -0.131328 -1.35082 5.13018
          }
        }
      }
    }
  }
}
MOTION
Frames: 19
Frame Time: 0.03333333333333333
0.0000 93.1000 0.0000 71.5144 -27.2961 -6.6722 -70.7654 0.2258 87.9154 83.4160 70.9111 2.1009 4.0795 18.1980 6.8595 -112.9144 29.2604 150.3887 -176.4516 76.7749 -155.1364 0.0544 -14.6327 -18.6043 -66.8254 33.8774 -145.9259 22.9911 -3.9740 -97.7776 0.1808 0.1537 -0.1215 -1.3168 4.6916 30.5993 -127.6013 -15.1182 110.6675 22.2753 -3.9013 82.0312 1.0754 0.0979 -0.1239 -48.0035 15.2428 95.8406 -3.8903 42.9142 -13.0694 -4.9807 -12.0474 -1.4520 3.2314 -10.4611 7.1261 -45.6267 -17.7610 77.7674 0.9556 34.2770 0.0870 -5.0988 1.9613 -0.0541 1.0511 -13.2352 -0.1025 
0.0000 93.1000 0.0000 71.6680 -28.6321 -7.0814 -70.8470 1.5854 88.0373 81.5617 70.3544 0.9764 5.8918 17.3770 9.1434 -112.4964 29.2285 150.8516 -177.6852 76.3289 -151.8779 2.4849 -15.6753 -19.2411 -67.4767 34.6793 -146.1167 22.4705 -3.4700 -96.9975 -0.7266 2.2993 -2.3480 -0.8319 5.4952 31.7881 -128.0153 -13.3380 109.4576 24.4473 -3.5664 81.9199 2.0705 -3.9528 -2.4512 -47.9660 14.6208 95.9494 -4.4705 43.6513 -11.0697 -3.8001 -14.0864 -3.4079 3.3496 -9.0101 7.0773 -43.3247 -18.4578 78.6078 0.5877 34.7268 1.3258 -2.4391 3.3048 1.3734 1.0444 -14.8443 -5.9366 
0.0000 93.1000 0.0000 70.7780 -32.1362 -8.8883 -70.8134 -0.4250 87.9686 81.6770 70.5620 -0.6066 5.3727 17.9305 8.8202 -111.5782 28.9413 152.2138 176.5328 76.1306 -144.8824 -0.6036 -16.3830 -19.9223 -68.8640 35.4949 -145.8355 21.2332 -3.7472 -97.2777 0.2809 -0.5026 -0.1418 -1.8496 5.7543 33.5224 -129.5414 -11.7371 109.0068 27.7159 -4.2937 82.9524 1.1053 0.2991 -0.2239 -48.6895 14.4020 97.4205 -3.7528 45.1427 -10.8551 -4.9808 -15.7503 -1.5670 2.0685 -8.6152 7.1303 -40.8453 -18.4862 79.6541 1.2706 35.8390 0.7476 -2.0337 5.6685 -0.9358 2.3216 -15.9395 -7.3571 
0.0000 93.1000 0.0000 70.5144 -33.8533 -9.1102 -70.7521 -0.1683 87.8869 83.7294 70.8349 -3.2378 5.2145 17.8648 8.8555 -111.8525 27.7801 151.7983 176.1926 75.3936 -146.2511 -0.3013 -17.1326 -21.5041 -69.4058 34.2671 -144.8132 19.1925 -3.1928 -97.8528 0.0911 -0.0004 -0.0276 -1.8803 5.6279 36.1233 -130.1143 -10.9044 107.8947 28.0396 -3.6260 84.0945 1.0690 -0.1859 -0.5174 -48.0938 14.7597 98.7050 -4.2963 46.8750 -10.4958 -4.9045 -17.0798 -1.9840 2.8143 -9.2767 9.3424 -40.8336 -17.0786 80.1953 1.5025 34.8125 3.2196 0.0121 5.0821 -1.1345 2.0614 -16.8924 -8.1337 
0.0000 93.1000 0.0000 70.8426 -35.7655 -8.9458 -70.5408 0.0688 87.9020 84.0056 71.0981 -2.9540 5.1626 18.8096 7.6793 -112.4287 27.6430 152.1800 175.1993 75.0804 -146.5612 0.1796 -17.3174 -22.4474 -69.0476 33.5440 -144.9647 19.2062 -3.1551 -97.8665 -0.1786 0.3731 -0.1867 -1.7356 6.0250 37.7407 -131.0268 -9.1471 106.2662 29.0101 -2.7524 85.3153 1.3229 -0.7303 -0.4807 -47.8194 15.0534 98.7780 -3.9746 48.0038 -9.5372 -4.1772 -18.4555 -2.2384 3.0133 -9.8917 10.8848 -40.8577 -16.0239 79.4661 1.8351 33.0120 4.0433 0.6889 4.5797 -0.5998 1.0826 -14.3662 -7.8604 
0.0000 93.1000 0.0000 70.9013 -37.0283 -8.8000 -70.5091 0.2285 88.0052 80.7374 72.0090 -0.0816 5.6385 19.7180 6.7824 -112.9214 27.7844 152.9403 173.4694 74.5222 -146.6335 0.2688 -17.4492 -23.8656 -68.5134 33.5573 -144.1965 21.0099 -3.8689 -97.0752 0.0171 0.2066 0.0431 -1.7543 6.1576 38.8808 -133.0370 -8.9880 104.1491 30.2054 -2.2391 86.2195 1.0435 -0.1057 -0.1514 -47.0635 15.2528 98.8059 -4.3408 49.1711 -8.7404 -3.6000 -19.1194 -2.0839 2.4685 -9.2811 10.4337 -42.1812 -15.7742 78.2781 0.3996 31.0380 2.7142 -0.3551 4.8389 -0.7692 0.7502 -11.8281 -1.9709 
0.0000 93.1000 0.0000 70.5723 -38.0459 -8.4016 -70.5038 0.1120 87.8644 81.9157 72.2445 -0.3744 5.0303 20.0380 6.7009 -113.6725 27.9985 153.0259 174.3898 74.2547 -147.8630 0.1059 -17.1447 -25.1729 -66.5726 33.7467 -144.0107 22.2398 -4.1792 -97.1290 0.2202 -0.2452 0.2583 -1.8625 6.2196 40.2018 -133.0346 -7.6500 102.0009 30.0644 -1.9368 87.0853 0.6796 0.3826 0.2113 -46.9094 15.1880 99.2248 -4.9723 49.7365 -8.9686 -2.9884 -18.7892 -1.7770 3.1131 -10.0732 11.1990 -41.9396 -16.0352 78.0739 1.1410 29.8888 5.3195 0.7597 5.8023 -1.1991 1.5461 -9.9634 -2.9649 
0.0000 93.1000 0.0000 70.4727 -38.8224 -9.3881 -70.5367 -0.1242 87.7668 83.6753 72.2125 -1.7011 4.3889 20.1355 5.9963 -113.8351 27.8799 155.1006 172.7359 73.4183 -146.8358 -0.2793 -17.0033 -25.2106 -64.7329 35.3310 -143.0180 23.9477 -4.3981 -97.0136 0.1571 -0.5008 0.1764 -2.2985 6.6944 41.7001 -133.0884 -7.2700 100.6585 30.3674 -1.8079 87.9677 0.6684 0.7103 0.5071 -46.6399 15.1768 99.4841 -5.3842 51.8716 -8.7160 -2.4727 -19.4174 -1.8072 3.7073 -11.7960 12.7892 -41.6808 -15.8540 78.3654 0.9837 29.8893 5.0210 0.8934 6.0546 -1.2387 0.7319 -9.0443 1.0050 
0.0000 93.1000 0.0000 71.5425 -39.0434 -8.6869 -70.5224 -0.5760 87.7185 83.6753 72.0806 -2.1850 3.9201 20.1454 5.6838 -113.8595 27.7204 157.2706 173.7286 73.1496 -144.2182 -0.7282 -17.0049 -25.7587 -64.5293 35.9159 -142.8166 24.8838 -3.9711 -96.9794 0.2586 -0.6178 0.0440 -2.8483 6.5744 42.7421 -133.5013 -7.2982 99.9077 31.0342 -2.1152 87.1516 0.6208 0.7238 0.4818 -47.0082 15.2513 99.6073 -4.9549 52.6366 -8.1733 -1.9581 -20.6202 -1.5933 3.1578 -10.6221 12.5248 -42.1036 -16.1832 78.2331 2.1955 29.7781 5.0743 1.0742 6.0308 -1.4989 0.5391 -9.2164 0.7706 
0.0000 93.1000 0.0000 72.0534 -39.8326 -8.7402 -70.5688 -0.1912 87.6751 82.8826 71.9206 -1.1236 4.8736 20.1232 5.5847 -114.7318 27.9051 156.2849 172.3322 73.1184 -145.8701 -0.1403 -16.9305 -25.5435 -63.5328 35.8757 -143.1374 25.3178 -4.1367 -96.4724 -0.1471 0.0954 -0.2517 -2.9258 6.8021 42.5079 -133.9912 -8.5764 99.9357 31.2496 -1.9206 86.8988 0.9403 -0.2967 -0.1986 -47.0849 15.7721 100.5015 -5.2505 52.8430 -7.8388 -1.7396 -20.9786 -1.8824 3.2753 -10.0997 13.2978 -41.9958 -16.9278 77.3012 2.1365 31.1859 5.7279 -0.3834 5.8006 -1.0434 0.5023 -10.0727 0.6770 
0.0000 93.1000 0.0000 73.0175 -39.8551 -7.6179 -70.6606 -0.0303 87.6863 83.9122 72.0264 -2.1917 4.0900 20.1762 6.1329 -113.9610 27.9614 155.6140 174.4146 73.1283 -148.9072 0.1419 -16.7902 -25.2374 -63.7522 35.0023 -143.8891 24.8984 -3.2596 -96.2382 0.1215 0.2311 0.0123 -2.7036 6.2601 43.0279 -134.2060 -8.2321 100.6410 30.0630 -2.1905 85.8495 0.8830 -0.2254 -0.2248 -47.0613 16.1278 100.6647 -5.0292 53.8386 -8.5072 -1.1097 -20.5023 -1.8032 2.7293 -10.8694 13.8512 -41.8056 -16.0679 77.5170 1.5528 32.1978 3.7358 -1.0331 5.0041 -1.0328 0.3334 -9.2418 2.5870 
0.0000 93.1000 0.0000 72.6217 -39.2305 -7.6207 -70.5108 0.3462 87.7741 82.8495 72.1510 -1.0256 4.5397 19.9084 6.6682 -113.8822 28.0401 156.2631 175.4121 73.1228 -148.0543 0.8398 -16.7653 -25.0158 -63.5371 34.2142 -143.8140 24.1126 -3.1728 -96.3683 -0.4123 0.8308 -0.8934 -2.4475 6.2391 42.8607 -134.0541 -8.1621 100.8915 29.4953 -1.9167 85.8947 1.4585 -1.5449 -1.0235 -46.7256 15.9630 99.9027 -5.7574 55.4235 -6.6210 -0.9166 -21.0689 -2.2077 2.2170 -9.5461 13.2107 -41.8912 -16.2260 78.2521 1.1390 31.9962 3.6859 -1.2352 4.5191 -0.4146 0.3880 -9.2795 2.8985 
0.0000 93.1000 0.0000 72.6595 -38.7504 -7.9163 -70.5135 0.0600 87.8321 82.8864 72.1137 -0.8935 3.9639 20.0533 6.1076 -114.0166 28.0782 155.0940 177.7494 73.1228 -150.1647 0.4735 -16.3481 -24.0642 -63.5920 33.8972 -143.8325 23.9949 -3.2811 -96.0395 0.0305 0.4744 -0.5505 -2.4036 5.8640 43.3131 -134.8035 -8.0112 100.6031 29.5219 -1.7069 85.5877 1.2234 -0.9307 -0.4017 -47.0395 15.9810 99.6371 -5.6883 55.2128 -6.4472 -1.5354 -21.4694 -1.9885 2.6159 -11.0009 14.2238 -41.9534 -15.9031 79.0101 1.0167 33.0892 2.6122 -0.5824 3.7280 -0.8485 0.3416 -9.0336 3.2871 
0.0000 93.1000 0.0000 72.5771 -38.7919 -8.4381 -70.3943 -0.0535 87.9236 80.9325 72.0718 0.9094 4.1407 19.7608 6.1617 -113.8800 28.0146 155.7554 176.2722 73.1612 -150.4686 0.2719 -16.6081 -24.2231 -63.6172 33.9144 -143.8209 24.1041 -2.8449 -96.0416 -0.1096 0.4332 -0.3605 -2.0943 6.0312 42.8604 -134.8148 -8.2110 100.3455 30.1004 -1.6454 85.7724 1.2141 -0.8228 -0.3009 -46.8803 15.3427 98.8505 -5.3348 54.8825 -6.6198 -1.0896 -21.1199 -2.0401 2.9943 -10.1489 12.9806 -42.0503 -15.8968 79.3289 1.1188 33.2411 0.6368 -0.4439 2.7775 -0.8517 0.1190 -7.0846 5.4293 
0.0000 93.1000 0.0000 72.9565 -38.0521 -7.9516 -70.3649 -0.3934 87.9174 79.8165 71.8901 2.2720 4.7519 19.2742 6.0484 -114.9217 27.7963 155.1208 176.1317 73.2346 -151.6439 -0.1866 -16.8639 -24.0492 -63.5224 33.8487 -143.7102 24.2003 -3.1962 -96.1595 -0.0750 0.1459 -0.2144 -2.1733 6.0690 42.2505 -134.8969 -9.0479 99.7105 30.8146 -1.8339 86.6996 0.8307 -0.4077 -0.1386 -46.8004 14.9160 98.7203 -5.7279 55.0537 -6.5559 -0.8314 -21.7384 -1.8735 2.7991 -9.3303 14.1242 -42.9257 -15.8531 79.3972 0.9508 33.0207 0.6472 0.1398 1.9268 -0.7974 -0.4181 -7.1225 5.2501 
0.0000 93.1000 0.0000 73.7797 -37.7588 -7.8411 -70.4283 -0.2143 87.8046 80.7886 71.3652 2.0504 4.5659 19.1168 6.5125 -114.8980 27.7944 156.1047 177.7617 73.5613 -150.1258 -0.0088 -16.8209 -24.3440 -63.8249 33.9237 -143.5688 24.2642 -3.1155 -96.1731 -0.3152 0.2502 -0.5218 -1.9333 5.9710 42.1590 -134.8517 -9.0185 99.6075 30.7429 -1.9618 85.7437 1.0272 -0.4969 -0.2427 -47.0061 14.8486 98.4237 -5.4411 55.0154 -7.1545 -0.7342 -21.0013 -2.1416 3.4937 -10.1754 14.9752 -43.0560 -15.3217 79.9708 0.4905 33.1944 0.8697 -0.1666 2.1963 -0.8604 -0.1118 -7.3183 4.3350 
0.0000 93.1000 0.0000 73.7035 -37.5123 -7.6137 -70.5398 -1.6133 87.8649 80.8742 71.6031 1.6524 2.9869 19.4877 5.2432 -115.0262 27.5428 155.4681 177.4523 74.0110 -151.4859 -1.9591 -16.8350 -25.2590 -63.5534 33.9103 -143.7533 24.0455 -3.5131 -96.3073 0.5995 -1.6338 1.7028 -2.2392 5.4482 41.9818 -134.7505 -9.5145 99.8290 31.2251 -2.2583 85.9071 -0.1345 3.7178 2.4293 -46.4896 15.1045 97.7747 -5.2364 54.4866 -8.3586 -1.8057 -19.6770 -0.7532 1.8817 -11.1383 16.2472 -42.6701 -15.9150 79.4456 1.0070 33.3046 1.0585 -1.3406 3.2302 -2.5827 1.2383 -8.0378 4.0833 
0.0000 93.1000 0.0000 73.6869 -37.7762 -7.7459 -70.2887 0.3269 87.8999 79.7625 71.3831 2.2330 4.4858 19.0084 6.2730 -114.8366 27.8520 155.9778 -179.8854 74.0239 -152.7141 0.5168 -17.3363 -23.8466 -62.6088 33.8399 -144.8960 23.9926 -2.8131 -96.3245 -0.2970 0.6736 -0.8739 -1.4564 6.2127 42.0545 -134.7026 -9.3438 99.3873 30.8973 -2.0713 85.5314 1.2337 -0.8893 -0.3091 -47.1449 14.6340 98.5393 -5.0325 54.7520 -7.8025 -0.6709 -20.5685 -2.6284 2.8719 -10.6318 15.0563 -43.4344 -15.7624 79.0699 0.5057 33.4446 1.2121 -0.6688 2.9330 -0.7332 -0.5643 -9.1355 4.0678 
0.0000 93.1000 0.0000 73.6372 -37.8158 -7.2670 -70.4311 -0.0384 87.8197 79.8142 71.8019 2.8309 4.0597 19.9572 5.8942 -114.9571 27.8175 154.8618 -177.4139 74.2283 -153.1997 0.0598 -16.9478 -23.9922 -62.5265 34.0602 -144.9931 24.1416 -3.1695 -96.4008 -0.1451 -0.1018 -0.1936 -1.5918 5.8327 41.9947 -135.0255 -9.0060 98.5256 30.7286 -1.9914 85.8166 1.0058 -0.1718 -0.2471 -46.8872 15.0548 99.0497 -5.0347 53.6968 -7.8344 -1.1885 -20.8241 -2.3240 2.4447 -10.1433 14.4096 -42.8067 -16.1160 79.3736 1.0737 33.1433 0.7436 -0.9203 2.9037 -0.9788 -0.0096 -8.0540 5.5273 
